<mxfile host="Electron" agent="Mozilla/5.0 (Windows NT 10.0; Win64; x64) AppleWebKit/537.36 (KHTML, like Gecko) draw.io/27.0.9 Chrome/134.0.6998.205 Electron/35.4.0 Safari/537.36" version="27.0.9">
  <diagram name="Page-1" id="rvJ8IEbzj4G9p1UqhMI2">
    <mxGraphModel dx="2860" dy="1192" grid="1" gridSize="10" guides="1" tooltips="1" connect="1" arrows="1" fold="1" page="1" pageScale="1" pageWidth="850" pageHeight="1100" math="0" shadow="0">
      <root>
        <mxCell id="0" />
        <mxCell id="1" parent="0" />
        <mxCell id="MDZ6cE1Nm2s3sjw-BEQI-3" value="" style="rounded=0;whiteSpace=wrap;html=1;rotation=90;fillColor=none;dashed=1;dashPattern=8 8;" parent="1" vertex="1">
          <mxGeometry x="-180" y="550" width="560" height="170" as="geometry" />
        </mxCell>
        <mxCell id="MDZ6cE1Nm2s3sjw-BEQI-4" value="Sources" style="rounded=0;whiteSpace=wrap;html=1;fontStyle=1;fontSize=20;strokeColor=none;" parent="1" vertex="1">
          <mxGeometry x="45" y="325" width="110" height="50" as="geometry" />
        </mxCell>
        <mxCell id="MDZ6cE1Nm2s3sjw-BEQI-6" value="" style="rounded=0;whiteSpace=wrap;html=1;fillColor=none;dashed=1;dashPattern=8 8;perimeterSpacing=0;strokeWidth=1;" parent="1" vertex="1">
          <mxGeometry x="220" y="350" width="910" height="570" as="geometry" />
        </mxCell>
        <mxCell id="MDZ6cE1Nm2s3sjw-BEQI-8" value="" style="rounded=0;whiteSpace=wrap;html=1;fillColor=none;strokeColor=default;dashed=1;dashPattern=8 8;" parent="1" vertex="1">
          <mxGeometry x="1170" y="350" width="190" height="570" as="geometry" />
        </mxCell>
        <mxCell id="MDZ6cE1Nm2s3sjw-BEQI-9" value="Data Warehouse" style="rounded=0;whiteSpace=wrap;html=1;fontStyle=1;fontSize=20;strokeColor=none;" parent="1" vertex="1">
          <mxGeometry x="580" y="325" width="220" height="50" as="geometry" />
        </mxCell>
        <mxCell id="MDZ6cE1Nm2s3sjw-BEQI-10" value="Consume" style="rounded=0;whiteSpace=wrap;html=1;fontStyle=1;fontSize=20;strokeColor=none;" parent="1" vertex="1">
          <mxGeometry x="1200" y="322.5" width="130" height="55" as="geometry" />
        </mxCell>
        <mxCell id="MDZ6cE1Nm2s3sjw-BEQI-11" value="" style="rounded=0;whiteSpace=wrap;html=1;fillColor=none;dashed=1;dashPattern=8 8;" parent="1" vertex="1">
          <mxGeometry x="265" y="440" width="235" height="450" as="geometry" />
        </mxCell>
        <mxCell id="MDZ6cE1Nm2s3sjw-BEQI-12" value="&lt;b&gt;&lt;font style=&quot;font-size: 16px; color: rgb(6, 6, 6);&quot;&gt;Bronze Layer&lt;/font&gt;&lt;/b&gt;" style="rounded=0;whiteSpace=wrap;html=1;fillColor=#fad7ac;strokeColor=#b46504;" parent="1" vertex="1">
          <mxGeometry x="270" y="400" width="220" height="30" as="geometry" />
        </mxCell>
        <mxCell id="MDZ6cE1Nm2s3sjw-BEQI-13" value="&lt;b&gt;&lt;font style=&quot;font-size: 16px;&quot;&gt;Silver Layer&lt;/font&gt;&lt;/b&gt;" style="rounded=0;whiteSpace=wrap;html=1;fillColor=#f5f5f5;strokeColor=#666666;fontColor=#333333;" parent="1" vertex="1">
          <mxGeometry x="580" y="400" width="190" height="30" as="geometry" />
        </mxCell>
        <mxCell id="MDZ6cE1Nm2s3sjw-BEQI-14" value="" style="rounded=0;whiteSpace=wrap;html=1;fillColor=none;dashed=1;dashPattern=8 8;" parent="1" vertex="1">
          <mxGeometry x="565" y="440" width="220" height="450" as="geometry" />
        </mxCell>
        <mxCell id="MDZ6cE1Nm2s3sjw-BEQI-15" value="&lt;b&gt;&lt;font style=&quot;font-size: 16px;&quot;&gt;Gold Layer&lt;/font&gt;&lt;/b&gt;" style="rounded=0;whiteSpace=wrap;html=1;fillColor=#ffcd28;strokeColor=#d79b00;gradientColor=#ffa500;" parent="1" vertex="1">
          <mxGeometry x="860" y="400" width="200" height="30" as="geometry" />
        </mxCell>
        <mxCell id="MDZ6cE1Nm2s3sjw-BEQI-16" value="" style="rounded=0;whiteSpace=wrap;html=1;fillColor=none;dashed=1;dashPattern=8 8;" parent="1" vertex="1">
          <mxGeometry x="850" y="440" width="220" height="450" as="geometry" />
        </mxCell>
        <mxCell id="MDZ6cE1Nm2s3sjw-BEQI-24" value="" style="image;html=1;image=img/lib/clip_art/general/Full_Folder_128x128.png" parent="1" vertex="1">
          <mxGeometry x="40" y="480" width="80" height="80" as="geometry" />
        </mxCell>
        <mxCell id="MDZ6cE1Nm2s3sjw-BEQI-22" value="" style="shadow=0;dashed=0;html=1;strokeColor=none;fillColor=#4495D1;labelPosition=center;verticalLabelPosition=bottom;verticalAlign=top;align=center;outlineConnect=0;shape=mxgraph.veeam.data_file;" parent="1" vertex="1">
          <mxGeometry x="96.5" y="462.73" width="53.5" height="60" as="geometry" />
        </mxCell>
        <mxCell id="MDZ6cE1Nm2s3sjw-BEQI-25" value="" style="image;html=1;image=img/lib/clip_art/general/Full_Folder_128x128.png" parent="1" vertex="1">
          <mxGeometry x="45" y="670" width="80" height="80" as="geometry" />
        </mxCell>
        <mxCell id="MDZ6cE1Nm2s3sjw-BEQI-26" value="" style="shadow=0;dashed=0;html=1;strokeColor=none;fillColor=#4495D1;labelPosition=center;verticalLabelPosition=bottom;verticalAlign=top;align=center;outlineConnect=0;shape=mxgraph.veeam.data_file;" parent="1" vertex="1">
          <mxGeometry x="101.5" y="646" width="53.5" height="60" as="geometry" />
        </mxCell>
        <mxCell id="MDZ6cE1Nm2s3sjw-BEQI-27" value="CRM" style="rounded=0;whiteSpace=wrap;html=1;fillColor=none;strokeColor=none;fontStyle=1;fontSize=18;" parent="1" vertex="1">
          <mxGeometry x="30" y="550" width="120" height="60" as="geometry" />
        </mxCell>
        <mxCell id="MDZ6cE1Nm2s3sjw-BEQI-28" value="ERP" style="rounded=0;whiteSpace=wrap;html=1;fillColor=none;strokeColor=none;fontStyle=1;fontSize=18;" parent="1" vertex="1">
          <mxGeometry x="30" y="740" width="120" height="60" as="geometry" />
        </mxCell>
        <mxCell id="MDZ6cE1Nm2s3sjw-BEQI-30" value="&lt;b&gt;Objective Type&lt;/b&gt; : CSV Files&lt;div&gt;&lt;b&gt;Interface&lt;/b&gt; : Files in Folder&lt;br&gt;&lt;div&gt;&lt;br&gt;&lt;/div&gt;&lt;/div&gt;" style="rounded=0;whiteSpace=wrap;html=1;fontColor=default;fillColor=none;strokeColor=none;" parent="1" vertex="1">
          <mxGeometry x="20" y="790" width="160" height="90" as="geometry" />
        </mxCell>
        <mxCell id="MDZ6cE1Nm2s3sjw-BEQI-31" value="" style="html=1;verticalLabelPosition=bottom;align=center;labelBackgroundColor=#ffffff;verticalAlign=top;strokeWidth=2;strokeColor=#b46504;shadow=0;dashed=0;shape=mxgraph.ios7.icons.data;fillColor=#fad7ac;" parent="1" vertex="1">
          <mxGeometry x="355.06" y="487" width="47.37" height="47" as="geometry" />
        </mxCell>
        <mxCell id="MDZ6cE1Nm2s3sjw-BEQI-32" value="" style="html=1;verticalLabelPosition=bottom;align=center;labelBackgroundColor=#ffffff;verticalAlign=top;strokeWidth=2;strokeColor=#36393d;shadow=0;dashed=0;shape=mxgraph.ios7.icons.data;fillColor=#f9f7ed;" parent="1" vertex="1">
          <mxGeometry x="655" y="490" width="40" height="40" as="geometry" />
        </mxCell>
        <mxCell id="MDZ6cE1Nm2s3sjw-BEQI-33" value="" style="html=1;verticalLabelPosition=bottom;align=center;labelBackgroundColor=#ffffff;verticalAlign=top;strokeWidth=2;strokeColor=#BD7000;shadow=0;dashed=0;shape=mxgraph.ios7.icons.data;fillColor=#f0a30a;fontColor=#000000;" parent="1" vertex="1">
          <mxGeometry x="950" y="455.45" width="50" height="74.55" as="geometry" />
        </mxCell>
        <mxCell id="MDZ6cE1Nm2s3sjw-BEQI-34" value="" style="shape=flexArrow;endArrow=classic;html=1;rounded=0;entryX=0.017;entryY=0.436;entryDx=0;entryDy=0;entryPerimeter=0;fillColor=#ffff88;strokeColor=#36393d;" parent="1" source="MDZ6cE1Nm2s3sjw-BEQI-3" target="MDZ6cE1Nm2s3sjw-BEQI-11" edge="1">
          <mxGeometry width="50" height="50" relative="1" as="geometry">
            <mxPoint x="680" y="580" as="sourcePoint" />
            <mxPoint x="730" y="530" as="targetPoint" />
          </mxGeometry>
        </mxCell>
        <mxCell id="MDZ6cE1Nm2s3sjw-BEQI-35" value="" style="shape=flexArrow;endArrow=classic;html=1;rounded=0;fillColor=#ffff88;strokeColor=#36393d;" parent="1" edge="1">
          <mxGeometry width="50" height="50" relative="1" as="geometry">
            <mxPoint x="500" y="639" as="sourcePoint" />
            <mxPoint x="570" y="639" as="targetPoint" />
          </mxGeometry>
        </mxCell>
        <mxCell id="MDZ6cE1Nm2s3sjw-BEQI-37" value="" style="shape=flexArrow;endArrow=classic;html=1;rounded=0;fillColor=#ffff88;strokeColor=#36393d;" parent="1" edge="1">
          <mxGeometry width="50" height="50" relative="1" as="geometry">
            <mxPoint x="785" y="639.1" as="sourcePoint" />
            <mxPoint x="850" y="640" as="targetPoint" />
          </mxGeometry>
        </mxCell>
        <mxCell id="MDZ6cE1Nm2s3sjw-BEQI-39" value="" style="shape=flexArrow;endArrow=classic;html=1;rounded=0;entryX=-0.011;entryY=0.512;entryDx=0;entryDy=0;entryPerimeter=0;fillColor=#ffff88;strokeColor=#36393d;exitX=0.991;exitY=0.451;exitDx=0;exitDy=0;exitPerimeter=0;" parent="1" source="MDZ6cE1Nm2s3sjw-BEQI-16" target="MDZ6cE1Nm2s3sjw-BEQI-8" edge="1">
          <mxGeometry width="50" height="50" relative="1" as="geometry">
            <mxPoint x="1070" y="639.1" as="sourcePoint" />
            <mxPoint x="1160" y="640" as="targetPoint" />
          </mxGeometry>
        </mxCell>
        <mxCell id="E_RmHMoaTkG9DnHFq35V-1" value="&lt;b&gt;&lt;font style=&quot;font-size: 14px;&quot;&gt;Raw Data&lt;/font&gt;&lt;/b&gt;" style="rounded=0;whiteSpace=wrap;html=1;fillColor=none;strokeColor=none;" parent="1" vertex="1">
          <mxGeometry x="320" y="537" width="120" height="25" as="geometry" />
        </mxCell>
        <mxCell id="E_RmHMoaTkG9DnHFq35V-2" value="&lt;b&gt;&lt;font style=&quot;font-size: 14px;&quot;&gt;Cleaned, Standadized Data&lt;/font&gt;&lt;/b&gt;" style="rounded=0;whiteSpace=wrap;html=1;fillColor=none;strokeColor=none;" parent="1" vertex="1">
          <mxGeometry x="570" y="534" width="210" height="30" as="geometry" />
        </mxCell>
        <mxCell id="E_RmHMoaTkG9DnHFq35V-6" value="&lt;font style=&quot;font-size: 14px;&quot;&gt;&lt;b&gt;Object Type : &lt;/b&gt;Tables&lt;/font&gt;&lt;div&gt;&lt;b&gt;&lt;font style=&quot;font-size: 14px;&quot;&gt;&lt;br&gt;&lt;/font&gt;&lt;/b&gt;&lt;/div&gt;&lt;div&gt;&lt;b&gt;&lt;font style=&quot;font-size: 14px;&quot;&gt;Load :&amp;nbsp;&lt;/font&gt;&lt;/b&gt;&lt;div&gt;&lt;ul&gt;&lt;li&gt;&lt;font style=&quot;font-size: 14px;&quot;&gt;Batch Processing&lt;/font&gt;&lt;/li&gt;&lt;li&gt;&lt;font style=&quot;font-size: 14px;&quot;&gt;Full Load&lt;/font&gt;&lt;/li&gt;&lt;li&gt;&lt;span style=&quot;background-color: transparent; color: light-dark(rgb(0, 0, 0), rgb(255, 255, 255));&quot;&gt;&lt;font style=&quot;font-size: 14px;&quot;&gt;Truncate and Insert&lt;/font&gt;&lt;/span&gt;&lt;/li&gt;&lt;/ul&gt;&lt;div&gt;&lt;span style=&quot;font-size: 14px;&quot;&gt;&lt;b&gt;Transformations :&lt;/b&gt;&lt;/span&gt;&lt;/div&gt;&lt;/div&gt;&lt;div&gt;&lt;ul&gt;&lt;li&gt;&lt;span style=&quot;font-size: 14px;&quot;&gt;Data Cleansing&lt;/span&gt;&lt;/li&gt;&lt;li&gt;&lt;span style=&quot;font-size: 14px;&quot;&gt;Data Standardization&lt;/span&gt;&lt;/li&gt;&lt;li&gt;&lt;span style=&quot;font-size: 14px;&quot;&gt;Data Normalization&lt;/span&gt;&lt;/li&gt;&lt;li&gt;&lt;span style=&quot;font-size: 14px;&quot;&gt;Derived Columns&lt;/span&gt;&lt;/li&gt;&lt;li&gt;&lt;span style=&quot;font-size: 14px;&quot;&gt;Data Enrichment&lt;/span&gt;&lt;/li&gt;&lt;/ul&gt;&lt;/div&gt;&lt;div&gt;&lt;span style=&quot;font-size: 14px;&quot;&gt;&lt;b&gt;Data Model :&lt;/b&gt;&lt;/span&gt;&lt;/div&gt;&lt;div&gt;&lt;ul&gt;&lt;li&gt;&lt;span style=&quot;font-size: 14px;&quot;&gt;None ( As-Is )&lt;/span&gt;&lt;/li&gt;&lt;/ul&gt;&lt;/div&gt;&lt;/div&gt;" style="rounded=0;whiteSpace=wrap;html=1;align=left;fillColor=none;strokeColor=none;" parent="1" vertex="1">
          <mxGeometry x="575" y="570" width="200" height="320" as="geometry" />
        </mxCell>
        <mxCell id="E_RmHMoaTkG9DnHFq35V-9" value="&lt;b&gt;&lt;font style=&quot;font-size: 14px;&quot;&gt;Business-Ready Data&lt;/font&gt;&lt;/b&gt;" style="rounded=0;whiteSpace=wrap;html=1;fillColor=none;strokeColor=none;" parent="1" vertex="1">
          <mxGeometry x="860" y="532" width="210" height="30" as="geometry" />
        </mxCell>
        <mxCell id="E_RmHMoaTkG9DnHFq35V-10" value="&lt;b&gt;&lt;font style=&quot;font-size: 14px;&quot;&gt;BI &amp;amp; Rporting&lt;/font&gt;&lt;/b&gt;" style="rounded=0;whiteSpace=wrap;html=1;fillColor=none;strokeColor=none;" parent="1" vertex="1">
          <mxGeometry x="1200" y="490" width="130" height="30" as="geometry" />
        </mxCell>
        <mxCell id="E_RmHMoaTkG9DnHFq35V-11" value="&lt;b&gt;&lt;font style=&quot;font-size: 14px;&quot;&gt;Ad-Hoc SQL Queries&lt;/font&gt;&lt;/b&gt;" style="rounded=0;whiteSpace=wrap;html=1;fillColor=none;strokeColor=none;" parent="1" vertex="1">
          <mxGeometry x="1200" y="661" width="130" height="30" as="geometry" />
        </mxCell>
        <mxCell id="E_RmHMoaTkG9DnHFq35V-12" value="&lt;b&gt;&lt;font style=&quot;font-size: 14px;&quot;&gt;Machine Learning&lt;/font&gt;&lt;/b&gt;" style="rounded=0;whiteSpace=wrap;html=1;fillColor=none;strokeColor=none;" parent="1" vertex="1">
          <mxGeometry x="1200" y="840" width="130" height="30" as="geometry" />
        </mxCell>
        <mxCell id="E_RmHMoaTkG9DnHFq35V-13" value="&lt;span style=&quot;font-size: 14px;&quot;&gt;&lt;b&gt;Object Type : &lt;/b&gt;Tables&lt;/span&gt;&lt;div&gt;&lt;span style=&quot;font-size: 14px;&quot;&gt;&lt;b&gt;&lt;br&gt;&lt;/b&gt;&lt;/span&gt;&lt;/div&gt;&lt;div&gt;&lt;span style=&quot;font-size: 14px;&quot;&gt;&lt;b&gt;Load :&lt;/b&gt;&lt;/span&gt;&lt;/div&gt;&lt;div&gt;&lt;span style=&quot;font-size: 14px;&quot;&gt;&lt;b&gt;&lt;br&gt;&lt;/b&gt;&lt;/span&gt;&lt;/div&gt;&lt;div&gt;&lt;ul&gt;&lt;li&gt;&lt;span style=&quot;font-size: 14px;&quot;&gt;Batch Processing&lt;/span&gt;&lt;/li&gt;&lt;li&gt;&lt;span style=&quot;font-size: 14px;&quot;&gt;Full Load&lt;/span&gt;&lt;/li&gt;&lt;li&gt;&lt;span style=&quot;font-size: 14px;&quot;&gt;Truncate &amp;amp; Insert&lt;/span&gt;&lt;/li&gt;&lt;/ul&gt;&lt;/div&gt;&lt;div&gt;&lt;span style=&quot;font-size: 14px;&quot;&gt;&lt;b&gt;&lt;br&gt;&lt;/b&gt;&lt;/span&gt;&lt;/div&gt;&lt;div&gt;&lt;span style=&quot;font-size: 14px;&quot;&gt;&lt;b&gt;No Transformations&lt;/b&gt;&lt;/span&gt;&lt;/div&gt;&lt;div&gt;&lt;span style=&quot;font-size: 14px;&quot;&gt;&lt;b&gt;&lt;br&gt;&lt;/b&gt;&lt;/span&gt;&lt;/div&gt;&lt;div&gt;&lt;span style=&quot;font-size: 14px;&quot;&gt;&lt;b&gt;Data Model : &lt;/b&gt;None (As-Is)&lt;/span&gt;&lt;/div&gt;" style="rounded=0;whiteSpace=wrap;html=1;align=left;fillColor=none;strokeColor=none;" parent="1" vertex="1">
          <mxGeometry x="280" y="564" width="200" height="236" as="geometry" />
        </mxCell>
        <mxCell id="E_RmHMoaTkG9DnHFq35V-14" value="&lt;font style=&quot;font-size: 14px;&quot;&gt;&lt;b&gt;Object Type : &lt;/b&gt;Views&lt;/font&gt;&lt;div&gt;&lt;b&gt;&lt;font style=&quot;font-size: 14px;&quot;&gt;&lt;br&gt;&lt;/font&gt;&lt;/b&gt;&lt;/div&gt;&lt;div&gt;&lt;b&gt;&lt;font style=&quot;font-size: 14px;&quot;&gt;No Load&amp;nbsp;&lt;/font&gt;&lt;/b&gt;&lt;/div&gt;&lt;div&gt;&lt;span style=&quot;font-size: 14px;&quot;&gt;&lt;b&gt;&lt;br&gt;&lt;/b&gt;&lt;/span&gt;&lt;div&gt;&lt;div&gt;&lt;span style=&quot;font-size: 14px;&quot;&gt;&lt;b&gt;Transformations :&lt;/b&gt;&lt;/span&gt;&lt;/div&gt;&lt;/div&gt;&lt;div&gt;&lt;ul&gt;&lt;li&gt;&lt;span style=&quot;font-size: 14px;&quot;&gt;Data Integration&lt;/span&gt;&lt;/li&gt;&lt;li&gt;&lt;span style=&quot;font-size: 14px;&quot;&gt;Aggregations&lt;/span&gt;&lt;/li&gt;&lt;li&gt;&lt;span style=&quot;font-size: 14px;&quot;&gt;Business Logic&lt;/span&gt;&lt;/li&gt;&lt;/ul&gt;&lt;/div&gt;&lt;div&gt;&lt;span style=&quot;font-size: 14px;&quot;&gt;&lt;b&gt;Data Model :&lt;/b&gt;&lt;/span&gt;&lt;/div&gt;&lt;/div&gt;&lt;div&gt;&lt;ul&gt;&lt;li&gt;&lt;font style=&quot;font-size: 15px;&quot;&gt;Star Schema&lt;/font&gt;&lt;/li&gt;&lt;li&gt;&lt;font style=&quot;font-size: 15px;&quot;&gt;Flat Table&lt;/font&gt;&lt;/li&gt;&lt;li&gt;&lt;font style=&quot;font-size: 15px;&quot;&gt;Aggregated Table&lt;/font&gt;&lt;/li&gt;&lt;/ul&gt;&lt;/div&gt;" style="rounded=0;whiteSpace=wrap;html=1;align=left;fillColor=none;strokeColor=none;" parent="1" vertex="1">
          <mxGeometry x="860" y="570" width="200" height="270" as="geometry" />
        </mxCell>
        <mxCell id="E_RmHMoaTkG9DnHFq35V-17" value="" style="endArrow=none;html=1;rounded=0;exitX=0.1;exitY=0.004;exitDx=0;exitDy=0;exitPerimeter=0;entryX=0.925;entryY=0.004;entryDx=0;entryDy=0;entryPerimeter=0;" parent="1" edge="1">
          <mxGeometry width="50" height="50" relative="1" as="geometry">
            <mxPoint x="297.5" y="564.0039999999999" as="sourcePoint" />
            <mxPoint x="462.5" y="564.0039999999999" as="targetPoint" />
          </mxGeometry>
        </mxCell>
        <mxCell id="E_RmHMoaTkG9DnHFq35V-18" value="" style="endArrow=none;html=1;rounded=0;exitX=0.1;exitY=0.004;exitDx=0;exitDy=0;exitPerimeter=0;entryX=0.925;entryY=0.004;entryDx=0;entryDy=0;entryPerimeter=0;" parent="1" edge="1">
          <mxGeometry width="50" height="50" relative="1" as="geometry">
            <mxPoint x="597" y="564" as="sourcePoint" />
            <mxPoint x="762" y="564" as="targetPoint" />
          </mxGeometry>
        </mxCell>
        <mxCell id="E_RmHMoaTkG9DnHFq35V-19" value="" style="endArrow=none;html=1;rounded=0;exitX=0.1;exitY=0.004;exitDx=0;exitDy=0;exitPerimeter=0;entryX=0.925;entryY=0.004;entryDx=0;entryDy=0;entryPerimeter=0;" parent="1" edge="1">
          <mxGeometry width="50" height="50" relative="1" as="geometry">
            <mxPoint x="883" y="564" as="sourcePoint" />
            <mxPoint x="1048" y="564" as="targetPoint" />
          </mxGeometry>
        </mxCell>
        <mxCell id="E_RmHMoaTkG9DnHFq35V-20" value="" style="image;aspect=fixed;html=1;points=[];align=center;fontSize=12;image=img/lib/azure2/analytics/Power_BI_Embedded.svg;" parent="1" vertex="1">
          <mxGeometry x="1200" y="430" width="37.5" height="50" as="geometry" />
        </mxCell>
        <mxCell id="E_RmHMoaTkG9DnHFq35V-22" value="" style="dashed=0;outlineConnect=0;html=1;align=center;labelPosition=center;verticalLabelPosition=bottom;verticalAlign=top;shape=mxgraph.weblogos.dzone" parent="1" vertex="1">
          <mxGeometry x="1216.2" y="760" width="87.60000000000001" height="61.2" as="geometry" />
        </mxCell>
        <mxCell id="YXM_WIA_hGIblr9upQpe-1" value="" style="verticalLabelPosition=bottom;aspect=fixed;html=1;shape=mxgraph.salesforce.analytics;" parent="1" vertex="1">
          <mxGeometry x="1259.4" y="425.6" width="60" height="58.8" as="geometry" />
        </mxCell>
        <mxCell id="YXM_WIA_hGIblr9upQpe-2" value="" style="sketch=0;points=[[0,0,0],[0.25,0,0],[0.5,0,0],[0.75,0,0],[1,0,0],[0,1,0],[0.25,1,0],[0.5,1,0],[0.75,1,0],[1,1,0],[0,0.25,0],[0,0.5,0],[0,0.75,0],[1,0.25,0],[1,0.5,0],[1,0.75,0]];outlineConnect=0;fontColor=#232F3E;fillColor=#8C4FFF;strokeColor=#ffffff;dashed=0;verticalLabelPosition=bottom;verticalAlign=top;align=center;html=1;fontSize=12;fontStyle=0;aspect=fixed;shape=mxgraph.aws4.resourceIcon;resIcon=mxgraph.aws4.sql_workbench;" parent="1" vertex="1">
          <mxGeometry x="1221" y="570" width="78" height="78" as="geometry" />
        </mxCell>
        <mxCell id="MAZMxP77fQmLE8W8Hnrw-6" value="" style="shape=callout;whiteSpace=wrap;html=1;perimeter=calloutPerimeter;rotation=-90;position2=0.71;size=30;position=0.38;fillColor=none;base=14;" parent="1" vertex="1">
          <mxGeometry x="280.35" y="427.39" width="51.43" height="81.83" as="geometry" />
        </mxCell>
        <mxCell id="MAZMxP77fQmLE8W8Hnrw-5" value="" style="outlineConnect=0;dashed=0;verticalLabelPosition=bottom;verticalAlign=top;align=center;html=1;shape=mxgraph.aws3.mysql_db_instance;fillColor=#2E73B8;gradientColor=none;" parent="1" vertex="1">
          <mxGeometry x="270" y="447.5" width="40" height="42.5" as="geometry" />
        </mxCell>
        <mxCell id="MAZMxP77fQmLE8W8Hnrw-3" value="" style="image;aspect=fixed;html=1;points=[];align=center;fontSize=12;image=img/lib/azure2/databases/Azure_Database_MySQL_Server.svg;" parent="1" vertex="1">
          <mxGeometry x="289.55" y="462.73" width="20.45" height="27.27" as="geometry" />
        </mxCell>
        <mxCell id="vF-LyUejHNJ8vviM8LrZ-3" value="" style="rounded=0;whiteSpace=wrap;html=1;fillColor=#0050ef;fontColor=#ffffff;strokeColor=#001DBC;" parent="1" vertex="1">
          <mxGeometry x="361.72999999999996" y="445" width="36.54" height="25" as="geometry" />
        </mxCell>
        <mxCell id="vF-LyUejHNJ8vviM8LrZ-1" value="" style="sketch=0;outlineConnect=0;fontColor=#ffffff;fillColor=light-dark(#fcfcfc, #6db2ff);strokeColor=none;dashed=0;verticalLabelPosition=bottom;verticalAlign=top;align=center;html=1;fontSize=12;fontStyle=0;aspect=fixed;pointerEvents=1;shape=mxgraph.aws4.programming_language;fillStyle=auto;gradientColor=none;" parent="1" vertex="1">
          <mxGeometry x="364.70000000000005" y="447.5" width="30.59" height="20" as="geometry" />
        </mxCell>
        <mxCell id="vF-LyUejHNJ8vviM8LrZ-4" value="" style="rounded=0;whiteSpace=wrap;html=1;fillColor=#0050ef;fontColor=#ffffff;strokeColor=#001DBC;" parent="1" vertex="1">
          <mxGeometry x="656.73" y="445" width="36.54" height="25" as="geometry" />
        </mxCell>
        <mxCell id="vF-LyUejHNJ8vviM8LrZ-5" value="" style="sketch=0;outlineConnect=0;fontColor=#ffffff;fillColor=light-dark(#fcfcfc, #6db2ff);strokeColor=none;dashed=0;verticalLabelPosition=bottom;verticalAlign=top;align=center;html=1;fontSize=12;fontStyle=0;aspect=fixed;pointerEvents=1;shape=mxgraph.aws4.programming_language;fillStyle=auto;gradientColor=none;" parent="1" vertex="1">
          <mxGeometry x="659.7" y="447.5" width="30.59" height="20" as="geometry" />
        </mxCell>
        <mxCell id="vF-LyUejHNJ8vviM8LrZ-6" value="" style="endArrow=classic;html=1;rounded=0;exitX=0.5;exitY=1;exitDx=0;exitDy=0;entryX=0.526;entryY=0.277;entryDx=0;entryDy=0;entryPerimeter=0;" parent="1" source="vF-LyUejHNJ8vviM8LrZ-3" target="MDZ6cE1Nm2s3sjw-BEQI-31" edge="1">
          <mxGeometry width="50" height="50" relative="1" as="geometry">
            <mxPoint x="520" y="520" as="sourcePoint" />
            <mxPoint x="570" y="470" as="targetPoint" />
          </mxGeometry>
        </mxCell>
        <mxCell id="vF-LyUejHNJ8vviM8LrZ-7" value="" style="endArrow=classic;html=1;rounded=0;" parent="1" edge="1">
          <mxGeometry width="50" height="50" relative="1" as="geometry">
            <mxPoint x="674.76" y="470" as="sourcePoint" />
            <mxPoint x="675" y="500" as="targetPoint" />
          </mxGeometry>
        </mxCell>
        <mxCell id="vF-LyUejHNJ8vviM8LrZ-8" value="&lt;b&gt;&lt;font style=&quot;font-size: 9px;&quot;&gt;Stored Procedure&lt;/font&gt;&lt;/b&gt;" style="rounded=0;whiteSpace=wrap;html=1;fillColor=none;strokeColor=none;" parent="1" vertex="1">
          <mxGeometry x="379" y="462.73" width="91.73" height="30" as="geometry" />
        </mxCell>
        <mxCell id="vF-LyUejHNJ8vviM8LrZ-9" value="&lt;b&gt;&lt;font style=&quot;font-size: 9px;&quot;&gt;Stored Procedure&lt;/font&gt;&lt;/b&gt;" style="rounded=0;whiteSpace=wrap;html=1;fillColor=none;strokeColor=none;" parent="1" vertex="1">
          <mxGeometry x="671" y="463.73" width="91.73" height="30" as="geometry" />
        </mxCell>
        <mxCell id="jEMBldNRISPhoKyjGfbs-1" value="" style="rounded=0;whiteSpace=wrap;html=1;fillColor=none;dashed=1;dashPattern=1 2;" vertex="1" parent="1">
          <mxGeometry x="-75" y="220" width="1525" height="740" as="geometry" />
        </mxCell>
        <mxCell id="jEMBldNRISPhoKyjGfbs-2" value="&lt;h1&gt;Simple &amp;amp; High Level Architecture&lt;/h1&gt;" style="rounded=0;whiteSpace=wrap;html=1;fillColor=none;strokeColor=none;" vertex="1" parent="1">
          <mxGeometry x="490" y="240" width="430" height="60" as="geometry" />
        </mxCell>
        <mxCell id="jEMBldNRISPhoKyjGfbs-3" value="" style="endArrow=none;html=1;rounded=0;exitX=-0.002;exitY=0.126;exitDx=0;exitDy=0;exitPerimeter=0;strokeWidth=1;dashed=1;dashPattern=1 2;" edge="1" parent="1">
          <mxGeometry width="50" height="50" relative="1" as="geometry">
            <mxPoint x="-77.05000000000018" y="301.24" as="sourcePoint" />
            <mxPoint x="1451" y="301" as="targetPoint" />
          </mxGeometry>
        </mxCell>
      </root>
    </mxGraphModel>
  </diagram>
</mxfile>
